<?xml version="1.0" encoding="UTF-8" standalone="no"?>
<svg
   viewBox="0 0 6.9039917 6.9040527"
   version="1.1"
   id="svg10"
   width="6.9039917"
   height="6.9040527"
   xmlns="http://www.w3.org/2000/svg"
   xmlns:svg="http://www.w3.org/2000/svg">
  <defs
     id="defs10" />
  <path
     fill="#fc4c69"
     d="m 6.5101534,2.5009891 c 0.52512,0.52511 0.52512,1.3765 0,1.90153 l -2.10762,2.1077 c -0.52514,0.52513 -1.37649,0.52513 -1.90172,0 l -2.10698998,-2.10708 c -0.52511,-0.52511 -0.52511,-1.37649 0,-1.90161 L 2.5014434,0.39390907 c 0.52512,-0.52521 1.3765,-0.52521 1.90164,0 z m -3.54012,1.22199 h 0.96723 c 0.0166,0 0.029,0.006 0.0375,0.0217 l 0.4925,0.85253 c 0.006,0.0108 0.006,0.023 0,0.0336 l -0.48846,0.84517 c -0.008,0.015 -0.0216,0.0223 -0.0388,0.0223 h -0.97737 c -0.014,0 -0.0246,-0.006 -0.0313,-0.0179 l -0.44118,-0.76555 c -0.008,-0.0149 -0.0217,-0.0223 -0.0392,-0.0223 h -1.34673 c -0.008,1.4e-4 -0.0136,0.0108 -0.0108,0.0163 4.8e-4,6.3e-4 10e-4,0.001 0.002,0.002 0.50526,0.50365 1.00829,1.00675 1.50914,1.50951 0.57249,0.57501 1.16593,0.53466 1.72414,-0.0246 0.61544,-0.61617 1.23143,-1.23199 1.84786,-1.84734 0.41622,-0.41584 0.62849,-0.87088 0.30153,-1.44093 -0.10198,-0.17841 -0.29173,-0.3392 -0.44604,-0.49377 -0.0108,-0.0108 -0.0241,-0.0169 -0.04,-0.0169 h -1.5408 c -0.0142,0 -0.0247,0.006 -0.0318,0.0185 l -0.44228,0.76924 c -0.006,0.0119 -0.0177,0.0182 -0.0318,0.0182 h -0.98474 c -0.014,0 -0.0248,-0.006 -0.032,-0.0182 l -0.48488,-0.84193 c -0.008,-0.0139 -0.008,-0.0311 0,-0.0449 l 0.48488,-0.84149 c 0.006,-0.0119 0.0176,-0.0185 0.0318,-0.0185 h 0.98717 c 0.0139,0 0.0243,0.006 0.0313,0.0179 l 0.44442,0.77011 c 0.006,0.0119 0.017,0.0179 0.0311,0.0179 h 1.38386 c 0.008,-1.4e-4 0.0132,-0.0108 0.008,-0.0162 -4.7e-4,-4.9e-4 -6.1e-4,-0.001 -0.001,-0.002 -0.50472,-0.50525 -1.00828,-1.00882 -1.51076,-1.51076003 -0.15944,-0.15943 -0.28337,-0.26369 -0.37181,-0.31266 -0.43246,-0.23951 -0.94763,-0.13707 -1.2904,0.20615 -0.61482,0.61538003 -1.22983,1.23028003 -1.84492998,1.84448003 -0.2253,0.22532 -0.36991,0.39912 -0.43381,0.52161 -0.17489,0.33407 -0.16078,0.67703 0.0425,1.02879 0.10652,0.18488 0.31104,0.35427 0.47093,0.51786 0.0119,0.0119 0.0259,0.018 0.0425,0.018 H 2.4524434 c 0.0146,0 0.0257,-0.006 0.033,-0.0192 l 0.44569,-0.77461 c 0.008,-0.0149 0.0216,-0.0223 0.0389,-0.0223 z m 0.15055,-2.01998 c -0.0108,-1.4e-4 -0.0187,0.005 -0.0236,0.0134 l -0.34079,0.5893 c -0.005,0.008 -0.005,0.0192 0,0.0277 l 0.3371,0.58041 c 0.005,0.008 0.0139,0.0136 0.0236,0.0134 h 0.6753 c 0.0108,0 0.0188,-0.005 0.0236,-0.0139 l 0.33549,-0.58032 c 0.005,-0.008 0.005,-0.019 0,-0.0274 l -0.34034,-0.58929 c -0.005,-0.008 -0.0139,-0.0136 -0.0236,-0.0134 z m -0.001,2.29545 c -0.0108,1.5e-4 -0.0194,0.006 -0.0246,0.0144 l -0.33748,0.58598 c -0.005,0.008 -0.005,0.0192 0,0.0277 l 0.33542,0.58191 c 0.005,0.008 0.0144,0.0143 0.0246,0.0143 h 0.67413 c 0.0108,1.4e-4 0.0194,-0.005 0.0246,-0.0139 l 0.33548,-0.58112 c 0.005,-0.008 0.005,-0.0198 0,-0.0285 l -0.33908,-0.58675 c -0.005,-0.008 -0.0145,-0.0139 -0.0245,-0.0139 z"
     style="stroke-width:0.0898734"
     id="path1" />
  <path
     fill="#fc4c69"
     d="m 2.8153534,3.3659291 h 1.27809 c 0.0108,0 0.0208,-0.006 0.0262,-0.0151 l 0.3212,-0.56152 c 0.006,-0.0108 0.0152,-0.015 0.026,-0.015 h 0.74801 c 0.0108,1.7e-4 0.0204,0.006 0.0257,0.015 l 0.37549,0.64278 c 0.006,0.0108 0.006,0.0207 4.8e-4,0.0301 l -0.3762,0.65373 c -0.006,0.0108 -0.0152,0.0151 -0.0261,0.0151 h -0.74721 c -0.0108,0 -0.0206,-0.006 -0.026,-0.0151 l -0.32119,-0.56153 c -0.006,-0.0108 -0.0154,-0.0151 -0.0261,-0.0151 h -1.2789 c -0.0108,0 -0.0207,0.006 -0.0261,0.0151 l -0.32158,0.56153 c -0.006,0.0108 -0.0152,0.0151 -0.026,0.0151 h -0.74893 c -0.0108,0 -0.0206,-0.006 -0.026,-0.0151 l -0.37145,-0.65373 c -0.006,-0.0108 -0.006,-0.0209 0,-0.0301 l 0.37387,-0.64278 c 0.006,-0.0108 0.0152,-0.015 0.0261,-0.015 h 0.74639 c 0.0108,0 0.0206,0.006 0.026,0.015 l 0.32237,0.56152 c 0.006,0.0108 0.0152,0.0151 0.0262,0.0151 z"
     style="stroke-width:0.0898734"
     id="path10" />
</svg>
