<?xml version="1.0" encoding="UTF-8" standalone="no"?>
<svg
   version="1.1"
   viewBox="0 0 224.50633 223.93491"
   id="svg8"
   sodipodi:docname="wordmarkoasis.svg"
   width="224.50633"
   height="223.93491"
   inkscape:export-filename="../Documents/wordmarkoasis.svg"
   inkscape:export-xdpi="96"
   inkscape:export-ydpi="96"
   xmlns:inkscape="http://www.inkscape.org/namespaces/inkscape"
   xmlns:sodipodi="http://sodipodi.sourceforge.net/DTD/sodipodi-0.dtd"
   xmlns="http://www.w3.org/2000/svg"
   xmlns:svg="http://www.w3.org/2000/svg">
  <defs
     id="defs8" />
  <sodipodi:namedview
     id="namedview8"
     pagecolor="#ffffff"
     bordercolor="#000000"
     borderopacity="0.25"
     inkscape:showpageshadow="2"
     inkscape:pageopacity="0.0"
     inkscape:pagecheckerboard="0"
     inkscape:deskcolor="#d1d1d1" />
  <g
     stroke-width="2"
     fill="none"
     stroke-linecap="butt"
     id="g4"
     transform="translate(-86.763659,-103.3351)"
     inkscape:export-filename="Uppercut/resin/assets/wordmark.svg"
     inkscape:export-xdpi="96"
     inkscape:export-ydpi="96">
    <path
       stroke="#70342e"
       vector-effect="non-scaling-stroke"
       d="m 233.21,109.62 c -29.64,-9.64 -63.11,-5.96 -89.81,10.01 -30.01,17.96 -49.94,48.43 -53.84,83.28 -0.76,6.77 -0.62,14.95 -0.8,22.43 -0.03,0.92 -0.44,1.69 -0.89,2.45 q -0.25,0.42 -0.02,0.85 1.08,1.98 1.09,4.27 0.11,46.55 -0.03,93 a 0.36,0.36 0 0 0 0.36,0.36 h 220.26 a 0.74,0.73 0 0 0 0.74,-0.73 q -0.03,-50.84 -0.03,-101.78 0,-14.14 -0.63,-19.98 c -4.63,-43.19 -35.44,-80.84 -76.4,-94.16"
       id="path1" />
    <path
       stroke="#70342e"
       vector-effect="non-scaling-stroke"
       d="m 106.52,179.44 c 33.64,-38.57 80.74,-51.92 130.44,-44.25 q 4.25,0.66 3.61,4.92 l -0.14,0.9 a 3.3,3.29 -81.3 0 1 -3.77,2.77 c -22.71,-3.58 -43.74,-3.33 -65.94,3.15 q -0.91,0.27 0.02,0.42 3.48,0.58 10.01,0.95 9.51,0.55 22.75,6.21 3.79,1.62 2.47,5.53 l -0.33,0.97 a 3.07,3.06 -69.2 0 1 -4.1,1.84 c -21.49,-9.09 -46.39,-9.82 -66.95,1.68 q -1.22,0.68 -1.68,1.75 a 0.57,0.57 0 0 0 0.6,0.79 c 15.77,-1.94 32.87,-1.04 47.74,4.81 q 3.69,1.46 2.39,5.21 l -0.33,0.92 a 3.2,3.2 0 0 1 -4.05,1.98 c -17.05,-5.79 -34.95,-7.75 -52.25,-3.01 -7.92,2.18 -11.33,4.15 -15.54,9.25 q -1.49,1.81 0.8,1.32 c 17.03,-3.67 33.4,-4.36 50.74,0.45 q 3.98,1.1 3.15,5.14 l -0.21,0.99 a 3.12,3.11 -76.6 0 1 -3.86,2.38 q -8.73,-2.34 -12.09,-2.74 c -15.33,-1.79 -31.62,-0.31 -46.08,5.31 a 7.69,7.67 0.7 0 0 -4.27,4.15 L 99,204.78 q -1.17,2.78 1.76,2.07 22.55,-5.46 45.24,-0.79 4.15,0.85 3.51,5.04 l -0.17,1.1 a 3.2,3.19 -79 0 1 -3.88,2.62 q -23.39,-5.42 -46.35,1.53 a 0.73,0.72 82.3 0 0 -0.51,0.68 l -0.14,8.45 a 0.5,0.5 0 0 0 0.58,0.5 q 13.41,-2.32 27.47,-0.65 3.8,0.46 6.44,1.76 c 4.46,2.2 2.37,8.79 -2.97,7.67 -7.72,-1.62 -14.98,-2.48 -22.78,-1.48 q -4.01,0.52 -8.11,1.07 -0.57,0.08 -0.58,0.65 l -0.03,13.03 q 0,0.55 0.55,0.49 9.81,-1.09 19.61,-0.17 a 3.7,3.69 -87.3 0 1 3.35,3.69 l -0.01,0.92 q -0.01,4.3 -4.28,3.82 -9.35,-1.04 -18.68,0.36 a 0.56,0.55 85.8 0 0 -0.47,0.55 l -0.17,27.57 a 0.36,0.36 0 0 0 0.63,0.24 q 3.76,-4.33 7.96,-8.78 c 26.49,-28.02 65.59,-41.89 103.58,-40.45 33.67,1.28 65.14,16.03 89.47,39.49 a 0.51,0.5 22.1 0 0 0.86,-0.36 q -0.03,-24.58 0.02,-49.32 0.03,-13.92 -0.59,-19.98 -4.17,-41.1 -35.28,-67.89 c -36.83,-31.71 -92.4,-32.51 -129.8,-1 q -21,17.68 -29.98,41.47 -1.47,3.91 1.27,0.76"
       id="path2" />
    <path
       stroke="#70342e"
       vector-effect="non-scaling-stroke"
       d="m 230.51,284.2 c 1.4,3.6 -2.88,7.2 -5.98,5.2 q -0.94,-0.61 -2.27,-3.02 c -7.47,-13.58 -20.04,-25.39 -33.25,-33.35 -6.89,-4.15 -11.61,-6.82 -18.72,-3.04 a 0.45,0.45 0 0 0 0.03,0.8 c 14.1,6.16 26.97,20.2 35.16,33.34 q 2.21,3.53 -1.29,5.8 l -0.77,0.5 a 3.27,3.26 57.3 0 1 -4.52,-0.99 q -11.34,-17.83 -27.22,-28.38 c -3.46,-2.3 -12.86,-7.53 -16.94,-6.11 q -3.29,1.14 -6.27,2.49 a 0.5,0.5 0 0 0 -0.01,0.9 q 20.58,9.89 32.27,29.55 2.06,3.46 -1.13,5.9 l -0.46,0.35 a 3.15,3.14 50.5 0 1 -4.28,-0.42 q -1.51,-1.73 -4.25,-5.81 -10.09,-15.04 -27.64,-22.65 c -2.14,-0.93 -5.83,-1.82 -7.52,-0.65 q -4.55,3.14 -9.16,6.24 a 0.27,0.27 0 0 0 0.06,0.48 c 11.6,4.33 23.58,12.46 30.07,23.3 a 3.22,3.21 58.2 0 1 -1.02,4.36 l -0.75,0.48 q -3.28,2.11 -5.65,-0.99 -11.42,-14.99 -28.98,-20.01 -1.89,-0.54 -2.75,0.3 -3.42,3.36 -7.01,6.91 a 0.77,0.77 0 0 0 0.25,1.26 c 3.61,1.49 12.08,4.25 13.86,7.98 1.84,3.88 -2.58,7.24 -6.14,5.12 q -6.13,-3.64 -12.22,-5.54 -1.75,-0.54 -2.55,0.15 c -6.41,5.63 -4.89,13.99 -4.96,21.58 a 0.76,0.76 0 0 0 0.76,0.77 h 200.99 a 0.53,0.53 0 0 0 0.53,-0.52 q 0.16,-12.27 -0.02,-24.61 c -0.04,-3.27 -1.27,-4.13 -3.36,-6.29 q -14.96,-15.39 -31.77,-25.11 a 0.39,0.39 0 0 0 -0.51,0.56 q 1.73,2.37 4.97,6.14 7.49,8.72 12.47,21.96 1.44,3.84 -2.35,5.39 l -0.94,0.39 a 3.24,3.24 0 0 1 -4.24,-1.81 c -8.86,-22.38 -26.64,-41.76 -50.83,-46.88 q -0.09,-0.02 -0.15,0.04 l -0.19,0.18 q -0.26,0.25 0.03,0.47 c 12.18,9.43 25.46,24.11 30.92,39.31 a 3.17,3.16 70.1 0 1 -1.89,4.04 l -0.85,0.31 q -3.69,1.34 -5.38,-2.21 c -8.35,-17.52 -22.07,-33.34 -39.72,-41.56 q -6.05,-2.81 -12.41,-1.19 a 0.39,0.39 0 0 0 -0.11,0.71 c 13.33,8.19 30.32,23.02 36.06,37.88"
       id="path3" />
    <path
       stroke="#efb4ae"
       vector-effect="non-scaling-stroke"
       d="m 260.33,194.66 a 22.05,22.05 0 0 0 -22.05,-22.05 22.05,22.05 0 0 0 -22.05,22.05 22.05,22.05 0 0 0 22.05,22.05 22.05,22.05 0 0 0 22.05,-22.05"
       id="path4" />
  </g>
  <path
     fill="#000000"
     d="m 146.44634,6.2849037 c 40.96,13.3200003 71.77,50.9700003 76.4,94.1600063 q 0.63,5.84 0.63,19.98 0,50.94 0.03,101.78 a 0.74,0.73 0 0 1 -0.74,0.73 H 2.5063418 a 0.36,0.36 0 0 1 -0.36,-0.36 q 0.14,-46.45 0.03,-93 -0.01,-2.29 -1.09,-4.27 -0.23000001,-0.43 0.02,-0.85 c 0.45,-0.76 0.86,-1.53 0.89,-2.45 0.18,-7.48 0.04,-15.66 0.8,-22.430002 3.9,-34.850004 23.8299992,-65.320004 53.8399992,-83.280004 26.7,-15.97000026 60.169999,-19.6500003 89.809999,-10.0100003 z M 19.756341,76.104904 c 33.64,-38.57 80.739999,-51.92 130.439999,-44.25 q 4.25,0.66 3.61,4.92 l -0.14,0.9 a 3.29,3.3 8.7 0 1 -3.77,2.77 c -22.71,-3.58 -43.74,-3.33 -65.939999,3.15 q -0.91,0.27 0.02,0.42 3.48,0.58 10.01,0.95 9.509999,0.55 22.749999,6.21 3.79,1.62 2.47,5.53 l -0.33,0.97 a 3.06,3.07 20.8 0 1 -4.1,1.84 c -21.489999,-9.09 -46.389999,-9.82 -66.949999,1.68 q -1.22,0.68 -1.68,1.75 a 0.57,0.57 0 0 0 0.6,0.79 c 15.77,-1.94 32.87,-1.04 47.74,4.81 q 3.69,1.46 2.39,5.21 l -0.33,0.92 a 3.2,3.2 0 0 1 -4.05,1.98 c -17.05,-5.79 -34.95,-7.75 -52.25,-3.01 -7.92,2.18 -11.33,4.150004 -15.54,9.250004 q -1.49,1.81 0.8,1.32 c 17.03,-3.67 33.4,-4.36 50.74,0.45 q 3.98,1.1 3.15,5.14 l -0.21,0.99 a 3.11,3.12 13.4 0 1 -3.86,2.38 q -8.73,-2.34 -12.09,-2.74 c -15.33,-1.79 -31.62,-0.31 -46.08,5.31 a 7.69,7.67 0.7 0 0 -4.27,4.15 l -0.65,1.550002 q -1.17,2.78 1.76,2.07 22.55,-5.460002 45.24,-0.79 4.15,0.85 3.51,5.04 l -0.17,1.1 a 3.19,3.2 11 0 1 -3.88,2.62 q -23.39,-5.42 -46.35,1.53 a 0.73,0.72 82.3 0 0 -0.51,0.68 l -0.14,8.45 a 0.5,0.5 0 0 0 0.58,0.5 q 13.41,-2.32 27.47,-0.65 3.8,0.46 6.44,1.76 c 4.46,2.2 2.37,8.79 -2.97,7.67 -7.72,-1.62 -14.98,-2.48 -22.78,-1.48 q -4.01,0.52 -8.11,1.07 -0.57,0.08 -0.58,0.65 l -0.03,13.03 q 0,0.55 0.55,0.49 9.81,-1.09 19.61,-0.17 a 3.69,3.7 2.7 0 1 3.35,3.69 l -0.01,0.92 q -0.01,4.3 -4.28,3.82 -9.35,-1.04 -18.68,0.36 a 0.56,0.55 85.8 0 0 -0.47,0.55 l -0.17,27.57 a 0.36,0.36 0 0 0 0.63,0.24 q 3.76,-4.33 7.96,-8.78 c 26.49,-28.02 65.59,-41.89 103.579999,-40.45 33.67,1.28 65.14,16.03 89.47,39.49 a 0.51,0.5 22.1 0 0 0.86,-0.36 q -0.03,-24.58 0.02,-49.32 0.03,-13.92 -0.59,-19.98 -4.17,-41.100006 -35.28,-67.890006 c -36.83,-31.7100003 -92.399999,-32.5100003 -129.799999,-1 q -21,17.68 -29.98,41.47 -1.47,3.910004 1.27,0.76 z M 143.74634,180.86491 c 1.4,3.6 -2.88,7.2 -5.98,5.2 q -0.94,-0.61 -2.27,-3.02 c -7.47,-13.58 -20.04,-25.39 -33.25,-33.35 -6.889999,-4.15 -11.609999,-6.82 -18.719999,-3.04 a 0.45,0.45 0 0 0 0.03,0.8 c 14.1,6.16 26.969999,20.2 35.159999,33.34 q 2.21,3.53 -1.29,5.8 l -0.77,0.5 a 3.27,3.26 57.3 0 1 -4.52,-0.99 q -11.34,-17.83 -27.219999,-28.38 c -3.46,-2.3 -12.86,-7.53 -16.94,-6.11 q -3.29,1.14 -6.27,2.49 a 0.5,0.5 0 0 0 -0.01,0.9 q 20.58,9.89 32.27,29.55 2.06,3.46 -1.13,5.9 l -0.46,0.35 a 3.15,3.14 50.5 0 1 -4.28,-0.42 q -1.51,-1.73 -4.25,-5.81 -10.09,-15.04 -27.64,-22.65 c -2.14,-0.93 -5.83,-1.82 -7.52,-0.65 q -4.55,3.14 -9.16,6.24 a 0.27,0.27 0 0 0 0.06,0.48 c 11.6,4.33 23.58,12.46 30.07,23.3 a 3.22,3.21 58.2 0 1 -1.02,4.36 l -0.75,0.48 q -3.28,2.11 -5.65,-0.99 -11.42,-14.99 -28.98,-20.01 -1.89,-0.54 -2.75,0.3 -3.42,3.36 -7.01,6.91 a 0.77,0.77 0 0 0 0.25,1.26 c 3.61,1.49 12.08,4.25 13.86,7.98 1.84,3.88 -2.58,7.24 -6.14,5.12 q -6.13,-3.64 -12.22,-5.54 -1.75,-0.54 -2.55,0.15 c -6.41,5.63 -4.89,13.99 -4.96,21.58 a 0.76,0.76 0 0 0 0.76,0.77 H 213.48634 a 0.53,0.53 0 0 0 0.53,-0.52 q 0.16,-12.27 -0.02,-24.61 c -0.04,-3.27 -1.27,-4.13 -3.36,-6.29 q -14.96,-15.39 -31.77,-25.11 a 0.39,0.39 0 0 0 -0.51,0.56 q 1.73,2.37 4.97,6.14 7.49,8.72 12.47,21.96 1.44,3.84 -2.35,5.39 l -0.94,0.39 a 3.24,3.24 0 0 1 -4.24,-1.81 c -8.86,-22.38 -26.64,-41.76 -50.83,-46.88 q -0.09,-0.02 -0.15,0.04 l -0.19,0.18 q -0.26,0.25 0.03,0.47 c 12.18,9.43 25.46,24.11 30.92,39.31 a 3.17,3.16 70.1 0 1 -1.89,4.04 l -0.85,0.31 q -3.69,1.34 -5.38,-2.21 c -8.35,-17.52 -22.07,-33.34 -39.72,-41.56 q -6.05,-2.81 -12.41,-1.19 a 0.39,0.39 0 0 0 -0.11,0.71 c 13.33,8.19 30.32,23.02 36.06,37.88 z"
     id="path6" />
  <path
     fill="#df685c"
     d="m 150.19634,31.854904 c -49.7,-7.67 -96.799999,5.68 -130.439999,44.25 q -2.74,3.150004 -1.27,-0.76 8.98,-23.79 29.98,-41.47 c 37.4,-31.5100003 92.969999,-30.7100003 129.799999,1 q 31.11,26.79 35.28,67.890006 0.62,6.06 0.59,19.98 -0.05,24.74 -0.02,49.32 a 0.51,0.5 22.1 0 1 -0.86,0.36 c -24.33,-23.46 -55.8,-38.21 -89.47,-39.49 -37.989999,-1.44 -77.089999,12.43 -103.579999,40.45 q -4.2,4.45 -7.96,8.78 a 0.36,0.36 0 0 1 -0.63,-0.24 l 0.17,-27.57 a 0.56,0.55 85.8 0 1 0.47,-0.55 q 9.33,-1.4 18.68,-0.36 4.27,0.48 4.28,-3.82 l 0.01,-0.92 a 3.69,3.7 2.7 0 0 -3.35,-3.69 q -9.8,-0.92 -19.61,0.17 -0.55,0.06 -0.55,-0.49 l 0.03,-13.03 q 0.01,-0.57 0.58,-0.65 4.1,-0.55 8.11,-1.07 c 7.8,-1 15.06,-0.14 22.78,1.48 5.34,1.12 7.43,-5.47 2.97,-7.67 q -2.64,-1.3 -6.44,-1.76 -14.06,-1.67 -27.47,0.65 a 0.5,0.5 0 0 1 -0.58,-0.5 l 0.14,-8.45 a 0.73,0.72 82.3 0 1 0.51,-0.68 q 22.96,-6.95 46.35,-1.53 a 3.19,3.2 11 0 0 3.88,-2.62 l 0.17,-1.1 q 0.64,-4.19 -3.51,-5.04 -22.69,-4.670002 -45.24,0.79 -2.93,0.71 -1.76,-2.07 l 0.65,-1.550002 a 7.69,7.67 0.7 0 1 4.27,-4.15 c 14.46,-5.62 30.75,-7.1 46.08,-5.31 q 3.36,0.4 12.09,2.74 a 3.11,3.12 13.4 0 0 3.86,-2.38 l 0.21,-0.99 q 0.83,-4.04 -3.15,-5.14 c -17.34,-4.81 -33.71,-4.12 -50.74,-0.45 q -2.29,0.49 -0.8,-1.32 c 4.21,-5.1 7.62,-7.070004 15.54,-9.250004 17.3,-4.74 35.2,-2.78 52.25,3.01 a 3.2,3.2 0 0 0 4.05,-1.98 l 0.33,-0.92 q 1.3,-3.75 -2.39,-5.21 c -14.87,-5.85 -31.97,-6.75 -47.74,-4.81 a 0.57,0.57 0 0 1 -0.6,-0.79 q 0.46,-1.07 1.68,-1.75 c 20.56,-11.5 45.46,-10.77 66.949999,-1.68 a 3.06,3.07 20.8 0 0 4.1,-1.84 l 0.33,-0.97 q 1.32,-3.91 -2.47,-5.53 -13.24,-5.66 -22.749999,-6.21 -6.53,-0.37 -10.01,-0.95 -0.93,-0.15 -0.02,-0.42 c 22.199999,-6.48 43.229999,-6.73 65.939999,-3.15 a 3.29,3.3 8.7 0 0 3.77,-2.77 l 0.14,-0.9 q 0.64,-4.26 -3.61,-4.92 z m 23.37,59.470004 a 22.05,22.05 0 0 0 -22.05,-22.050004 22.05,22.05 0 0 0 -22.05,22.050004 22.05,22.05 0 0 0 22.05,22.050002 22.05,22.05 0 0 0 22.05,-22.050002 z"
     id="path7"
     style="fill:#fc4c69;fill-opacity:1" />
  <circle
     fill="#ffffff"
     cx="151.51634"
     cy="91.324905"
     r="22.049999"
     id="circle7"
     style="fill:#fbbd56;fill-opacity:1" />
  <path
     fill="#df685c"
     d="m 137.76634,186.06491 c 3.1,2 7.38,-1.6 5.98,-5.2 -5.74,-14.86 -22.73,-29.69 -36.06,-37.88 a 0.39,0.39 0 0 1 0.11,-0.71 q 6.36,-1.62 12.41,1.19 c 17.65,8.22 31.37,24.04 39.72,41.56 q 1.69,3.55 5.38,2.21 l 0.85,-0.31 a 3.17,3.16 70.1 0 0 1.89,-4.04 c -5.46,-15.2 -18.74,-29.88 -30.92,-39.31 q -0.29,-0.22 -0.03,-0.47 l 0.19,-0.18 q 0.06,-0.06 0.15,-0.04 c 24.19,5.12 41.97,24.5 50.83,46.88 a 3.24,3.24 0 0 0 4.24,1.81 l 0.94,-0.39 q 3.79,-1.55 2.35,-5.39 -4.98,-13.24 -12.47,-21.96 -3.24,-3.77 -4.97,-6.14 a 0.39,0.39 0 0 1 0.51,-0.56 q 16.81,9.72 31.77,25.11 c 2.09,2.16 3.32,3.02 3.36,6.29 q 0.18,12.34 0.02,24.61 a 0.53,0.53 0 0 1 -0.53,0.52 H 12.496341 a 0.76,0.76 0 0 1 -0.76,-0.77 c 0.07,-7.59 -1.45,-15.95 4.96,-21.58 q 0.8,-0.69 2.55,-0.15 6.09,1.9 12.22,5.54 c 3.56,2.12 7.98,-1.24 6.14,-5.12 -1.78,-3.73 -10.25,-6.49 -13.86,-7.98 a 0.77,0.77 0 0 1 -0.25,-1.26 q 3.59,-3.55 7.01,-6.91 0.86,-0.84 2.75,-0.3 17.56,5.02 28.98,20.01 2.37,3.1 5.65,0.99 l 0.75,-0.48 a 3.22,3.21 58.2 0 0 1.02,-4.36 c -6.49,-10.84 -18.47,-18.97 -30.07,-23.3 a 0.27,0.27 0 0 1 -0.06,-0.48 q 4.61,-3.1 9.16,-6.24 c 1.69,-1.17 5.38,-0.28 7.52,0.65 q 17.55,7.61 27.64,22.65 2.74,4.08 4.25,5.81 a 3.15,3.14 50.5 0 0 4.28,0.42 l 0.46,-0.35 q 3.19,-2.44 1.13,-5.9 -11.69,-19.66 -32.27,-29.55 a 0.5,0.5 0 0 1 0.01,-0.9 q 2.98,-1.35 6.27,-2.49 c 4.08,-1.42 13.48,3.81 16.94,6.11 q 15.879999,10.55 27.219999,28.38 a 3.27,3.26 57.3 0 0 4.52,0.99 l 0.77,-0.5 q 3.5,-2.27 1.29,-5.8 c -8.19,-13.14 -21.059999,-27.18 -35.159999,-33.34 a 0.45,0.45 0 0 1 -0.03,-0.8 c 7.11,-3.78 11.83,-1.11 18.719999,3.04 13.21,7.96 25.78,19.77 33.25,33.35 q 1.33,2.41 2.27,3.02 z"
     id="path8"
     style="fill:#fc4c69;fill-opacity:1" />
</svg>
