<svg width="131" height="22" viewBox="0 0 131 22" fill="none" xmlns="http://www.w3.org/2000/svg">
<path d="M114.082 0.00231934H118.987V16.9055H130.337V21.1242H114.082V0.00231934ZM102.561 0.00231934L111.687 21.1242H106.525L104.671 16.7345H94.7186L92.8364 21.1242H87.7888L96.9715 0.00231934H102.561ZM96.4582 12.6868H102.932L99.7092 5.13313L96.4582 12.6868ZM85.9922 0.00231934V4.22099H73.1308V8.26863H84.3382V12.4018H73.1308V16.9055H85.9922V21.1242H68.2828V0.00231934H85.9922ZM51.543 21.1242L42.4459 0.00231934H47.7787L54.3092 15.4518L60.8682 0.00231934H66.0299L56.9043 21.1242H51.543ZM40.8774 0.00231934V4.22099H27.9875V8.26863H39.1949V12.4018H27.9875V16.9055H40.8489V21.1242H23.168V0.00231934H40.8774ZM4.91674 21.1242H0.0117188V0.00231934H11.1906C16.1241 0.00231934 19.3181 2.3967 19.3181 6.7864C19.3181 9.9504 17.6071 12.1452 14.6983 13.0859L19.8885 21.0957H14.2705L9.56511 13.6275H4.91674V21.1242ZM10.934 9.60835C13.2724 9.60835 14.4986 8.58218 14.4986 6.87191C14.4986 5.13313 13.2439 4.13548 10.934 4.13548H4.94526V9.60835H10.934Z" fill="#0A151B"/>
</svg>
