<?xml version="1.0" encoding="UTF-8" standalone="no"?>
<svg
   viewBox="0 0 500 500"
   version="1.1"
   id="svg10"
   sodipodi:docname="Untitled (1).svg"
   inkscape:version="1.3 (0e150ed, 2023-07-21)"
   xmlns:inkscape="http://www.inkscape.org/namespaces/inkscape"
   xmlns:sodipodi="http://sodipodi.sourceforge.net/DTD/sodipodi-0.dtd"
   xmlns="http://www.w3.org/2000/svg"
   xmlns:svg="http://www.w3.org/2000/svg">
  <defs
     id="defs10" />
  <sodipodi:namedview
     id="namedview10"
     pagecolor="#ffffff"
     bordercolor="#000000"
     borderopacity="0.25"
     inkscape:showpageshadow="2"
     inkscape:pageopacity="0.0"
     inkscape:pagecheckerboard="0"
     inkscape:deskcolor="#d1d1d1"
     inkscape:export-bgcolor="#ffffff00"
     inkscape:zoom="0.24181436"
     inkscape:cx="287.41056"
     inkscape:cy="239.85341"
     inkscape:window-width="1312"
     inkscape:window-height="449"
     inkscape:window-x="145"
     inkscape:window-y="23"
     inkscape:window-maximized="0"
     inkscape:current-layer="svg10" />
  <path
     fill="#fc4c69"
     d="m 129.15754,256.34912 c 7.03337,7.03337 7.03337,18.43627 0,25.46845 l -28.22859,28.22978 c -7.033375,7.03338 -18.436276,7.03338 -25.470853,0 L 47.237935,281.82599 c -7.033373,-7.03337 -7.033373,-18.43627 0,-25.46964 l 28.228588,-28.22859 c 7.033375,-7.03458 18.436277,-7.03458 25.469647,0 z m -47.414788,16.36706 h 12.954506 c 0.221489,0 0.388802,0.0975 0.501955,0.29011 l 6.596417,11.41854 c 0.0819,0.13724 0.0819,0.30937 0,0.4478 l -6.542251,11.31984 c -0.116763,0.19982 -0.288896,0.29973 -0.518803,0.29973 H 81.644047 c -0.188985,0 -0.329817,-0.0795 -0.420097,-0.24076 l -5.909095,-10.25333 c -0.116761,-0.19982 -0.291301,-0.29973 -0.524823,-0.29973 H 56.752193 c -0.111953,0.002 -0.181766,0.12398 -0.126392,0.21787 0.0072,0.01 0.01443,0.0192 0.02286,0.0276 6.767345,6.74569 13.504606,13.48414 20.212973,20.21779 7.667735,7.70144 15.615941,7.16097 23.092286,-0.32863 8.243112,-8.25274 16.493462,-16.50067 24.749822,-24.74258 5.57446,-5.56965 8.41766,-11.66411 4.0385,-19.29935 -1.36623,-2.3894 -3.9073,-4.54286 -5.97409,-6.61328 -0.14445,-0.15046 -0.32381,-0.22508 -0.53567,-0.22508 H 101.5946 c -0.19019,0 -0.33223,0.0819 -0.42732,0.24675 l -5.923545,10.3027 c -0.0951,0.16371 -0.23834,0.24556 -0.427324,0.24556 H 81.627182 c -0.188984,0 -0.333433,-0.0819 -0.430932,-0.24556 l -6.494108,-11.2765 c -0.108336,-0.18537 -0.108336,-0.41529 0,-0.60066 l 6.494108,-11.27049 c 0.0951,-0.1637 0.235927,-0.24676 0.426117,-0.24676 h 13.2109 c 0.18537,0 0.326207,0.0807 0.420099,0.24074 l 5.952424,10.31474 c 0.0915,0.16009 0.22992,0.23954 0.41529,0.23954 h 18.53498 c 0.10954,-0.002 0.17334,-0.12279 0.11676,-0.21667 -0.006,-0.008 -0.0108,-0.0157 -0.018,-0.0228 -6.76013,-6.76735 -13.50461,-13.51183 -20.23464,-20.23464 -2.135418,-2.13541 -3.795351,-3.53174 -4.979815,-4.18776 -5.792334,-3.20793 -12.692092,-1.83569 -17.283112,2.76133 -8.23469,8.24193 -16.471786,16.47782 -24.710094,24.70408 -3.017741,3.01775 -4.954537,5.34576 -5.810388,6.98644 -2.342451,4.47425 -2.153466,9.06767 0.568159,13.77906 1.426413,2.47605 4.1661,4.74508 6.307527,6.93588 0.156483,0.16128 0.346674,0.24073 0.569361,0.24073 h 20.129913 c 0.196205,0 0.344263,-0.0855 0.442968,-0.25639 l 5.969284,-10.37492 c 0.115556,-0.19982 0.28889,-0.30093 0.518802,-0.30093 z M 83.759,245.66123 c -0.130008,-0.002 -0.250382,0.0674 -0.316584,0.17936 l -4.56453,7.89284 c -0.06739,0.11555 -0.06739,0.25759 0,0.37195 l 4.515176,7.77367 c 0.06621,0.11194 0.186577,0.18055 0.317782,0.17934 h 9.044803 c 0.131209,0 0.252786,-0.071 0.316585,-0.18537 l 4.493504,-7.77246 c 0.06621,-0.11436 0.06621,-0.25398 0,-0.36713 l -4.55851,-7.89284 c -0.06621,-0.11195 -0.186573,-0.18056 -0.316575,-0.17936 z m -0.01568,30.74438 c -0.136022,0.002 -0.261211,0.0735 -0.32862,0.1926 l -4.519992,7.8483 c -0.06502,0.11556 -0.06502,0.25639 0,0.37195 l 4.492306,7.79412 c 0.06739,0.11797 0.192594,0.19019 0.328617,0.19019 h 9.02915 c 0.134819,0.002 0.260014,-0.0686 0.32742,-0.18537 l 4.493504,-7.7833 c 0.06982,-0.11796 0.06982,-0.26361 0,-0.38278 l -4.541657,-7.85914 c -0.06857,-0.11675 -0.193801,-0.18777 -0.327413,-0.18657 z"
     style="stroke-width:1.20373"
     id="path1"
     inkscape:export-filename="wordmark-uppercut.png"
     inkscape:export-xdpi="600.06122"
     inkscape:export-ydpi="600.06122" />
  <path
     fill="#65605f"
     d="m 446.05296,250.71688 h 6.28588 c 0.18176,0 0.27324,0.0903 0.27324,0.27325 v 7.65209 c 0,0.15167 -0.12277,0.27325 -0.27324,0.27325 h -6.27504 c -0.17814,0 -0.26723,0.0891 -0.26723,0.26722 -0.0445,4.92325 -0.0349,9.83927 0.0275,14.74685 0.0542,4.62472 2.71078,4.30213 6.24732,4.40083 0.17818,0.003 0.26724,0.0951 0.26724,0.27204 v 7.07431 c 0,0.19259 -0.0951,0.29972 -0.28409,0.32139 -3.811,0.46343 -7.13328,0.35751 -9.96444,-0.31658 -5.00629,-1.1917 -5.41076,-5.11585 -5.44326,-9.93676 -0.0337,-5.50946 -0.0373,-11.02253 -0.012,-16.53921 0,-0.19379 -0.0939,-0.29009 -0.28408,-0.29009 h -3.55221 c -0.18173,0 -0.27325,-0.0903 -0.27325,-0.27325 v -7.59671 c 0,-0.21908 0.10955,-0.32863 0.32742,-0.32863 h 3.49804 c 0.18295,0 0.27444,-0.0903 0.27444,-0.27324 v -8.47182 c 0,-0.18177 0.0903,-0.27325 0.27204,-0.27325 h 8.60906 c 0.15046,0 0.27324,0.12278 0.27324,0.27325 v 8.47182 c 0,0.18296 0.0915,0.27324 0.27324,0.27324 z"
     style="fill:#1a1a1a;stroke-width:1.20373"
     id="path2" />
  <path
     fill="#65605f"
     d="m 206.54272,254.33529 c 3.79293,-3.06829 8.15524,-4.22268 13.0845,-3.46432 18.14739,2.79142 19.09711,30.624 1.43846,34.80575 -5.4854,1.30001 -10.3027,0.18656 -14.45676,-3.34035 -0.15408,-0.12759 -0.22992,-0.0927 -0.22992,0.10353 v 13.64303 c 0,0.18296 -0.0915,0.27325 -0.27324,0.27325 h -8.60906 c -0.18176,0 -0.27324,-0.0903 -0.27324,-0.27325 v -44.45844 c 0,-0.12398 0.0975,-0.22509 0.21908,-0.22509 h 8.59702 c 0.2299,0 0.34306,0.11555 0.33944,0.34546 l -0.005,2.50858 c 0,0.14564 0.0554,0.17333 0.16853,0.0819 z m 9.70203,4.48147 c -11.91569,-1.21817 -13.76221,16.09261 -4.01202,18.70471 14.44592,3.88081 16.93282,-17.38663 4.01202,-18.70471 z"
     style="fill:#1a1a1a;stroke-width:1.20373"
     id="path3" />
  <path
     fill="#65605f"
     d="m 250.51484,282.42425 v 13.65868 c 0,0.18296 -0.0915,0.27325 -0.27324,0.27325 h -8.60906 c -0.18176,0 -0.27324,-0.0903 -0.27324,-0.27325 v -44.45844 c 0,-0.12398 0.0975,-0.22509 0.21908,-0.22509 h 8.60905 c 0.23592,0 0.35149,0.11916 0.34425,0.3563 l -0.0601,2.5194 c -0.003,0.24074 0.083,0.28288 0.26241,0.12639 2.69275,-2.3617 5.83687,-3.60275 9.43361,-3.72312 8.82211,-0.30574 15.23316,4.65721 17.2169,13.11821 1.678,7.12726 -0.55733,15.13565 -6.61328,19.37638 -5.75501,4.02165 -14.5061,4.15887 -19.99389,-0.86307 -0.17454,-0.1613 -0.26241,-0.12278 -0.26241,0.11436 z m 18.16664,-15.17297 c -0.0325,-4.63555 -3.81822,-8.36832 -8.45498,-8.33581 l -1.6491,0.0109 c -4.63677,0.0337 -8.37072,3.81821 -8.33822,8.45497 l 0.0156,2.11013 c 0.0325,4.63676 3.81701,8.36831 8.45376,8.3358 l 1.65032,-0.0108 c 4.63674,-0.0325 8.36829,-3.81822 8.337,-8.45497 z"
     style="fill:#1a1a1a;stroke-width:1.20373"
     id="path4" />
  <path
     fill="#65605f"
     d="m 336.73777,255.49929 c 0.002,0.14324 0.15888,0.22991 0.28167,0.15649 0.0204,-0.0132 0.0373,-0.0288 0.0517,-0.047 2.5531,-3.427 7.03458,-4.76072 11.11159,-4.91841 0.16733,-0.008 0.30575,0.12639 0.30575,0.29371 v 8.48386 c 0,0.19379 -0.0963,0.28769 -0.29009,0.28408 -6.33401,-0.0542 -11.35716,3.27292 -11.433,10.19917 -0.059,4.92565 -0.0602,9.93797 -0.006,15.03575 0.002,0.24075 -0.1914,0.43816 -0.43093,0.43816 h -8.47304 c -0.18177,0 -0.27324,-0.0915 -0.27324,-0.27324 v -33.5274 c 0,-0.12398 0.0987,-0.2251 0.21907,-0.2251 h 8.5922 c 0.22871,0 0.34427,0.11316 0.34427,0.33945 z"
     style="fill:#1a1a1a;stroke-width:1.20373"
     id="path5" />
  <path
     fill="#65605f"
     d="m 293.25796,272.12034 c 0.4213,2.17514 1.55161,3.70627 3.38728,4.59222 5.37584,2.58681 10.14019,1.82485 14.29426,-2.28467 0.14444,-0.14204 0.30575,-0.1625 0.48029,-0.0601 l 6.50975,3.77609 c 0.20704,0.12038 0.25639,0.39723 0.10352,0.58501 -5.40352,6.55189 -12.39598,8.80527 -20.97735,6.76133 -9.49379,-2.263 -14.48443,-10.92622 -12.8606,-20.33816 2.01142,-11.62076 14.70833,-16.97134 24.97371,-13.04719 8.54284,3.26932 11.76161,10.87206 10.83714,19.58463 -0.0181,0.13843 -0.0951,0.20825 -0.23473,0.20825 h -26.32789 c -0.15288,0 -0.21547,0.0735 -0.18538,0.22268 z m 9.03999,-13.16153 c -3.83748,-0.10955 -8.06858,1.98976 -8.82693,6.10048 -0.0361,0.18537 0.0397,0.27806 0.22992,0.27806 h 16.39595 c 0.23352,0 0.31538,-0.11075 0.24677,-0.33344 -1.17725,-3.9097 -3.85916,-5.92474 -8.04571,-6.0451 z"
     style="fill:#1a1a1a;stroke-width:1.20373"
     id="path6" />
  <path
     fill="#65605f"
     d="m 352.69798,274.01742 c -4.78843,-12.94247 7.50402,-24.83047 20.63307,-22.92377 5.74298,0.8378 10.21723,3.93498 13.42396,9.29278 0.11916,0.19981 0.071,0.34425 -0.14684,0.43093 l -7.73998,3.0394 c -0.17935,0.0686 -0.3214,0.0228 -0.42732,-0.13602 -3.27896,-4.98463 -9.59129,-6.58197 -14.28222,-2.64097 -3.79173,3.18144 -4.18054,9.80074 -1.30002,13.37461 4.35628,5.40593 11.93735,4.60304 15.90604,-1.06531 0.11917,-0.17093 0.27565,-0.21787 0.46945,-0.14204 l 7.21513,2.90821 c 0.13123,0.0505 0.16734,0.14084 0.10954,0.27203 -6.99726,14.665 -28.44526,12.22144 -33.86081,-2.40985 z"
     style="fill:#1a1a1a;stroke-width:1.20373"
     id="path7" />
  <path
     fill="#65605f"
     d="m 178.6283,282.72999 c -2.98404,2.50977 -6.34365,3.63887 -10.07761,3.38367 -7.84348,-0.53566 -11.93736,-5.31204 -12.05893,-13.16154 -0.10834,-7.1056 -0.15046,-14.22564 -0.12519,-21.36012 0,-0.10593 0.0842,-0.1926 0.18658,-0.1926 h 8.81008 c 0.19379,0 0.2901,0.0975 0.2901,0.2901 0,6.5266 0.0144,13.03033 0.0445,19.5124 0.0157,3.76646 1.26151,6.35808 5.21334,7.04059 5.90308,1.01716 8.01321,-3.77608 8.00718,-8.80044 -0.008,-5.93798 -0.01,-11.8904 -0.005,-17.85607 0,-0.10232 0.0831,-0.18658 0.18537,-0.18658 h 8.83294 c 0.18178,0 0.27325,0.0915 0.27325,0.27445 v 33.47804 c 0,0.18176 -0.0915,0.27325 -0.27325,0.27325 h -8.60905 c -0.27324,0 -0.40926,-0.13723 -0.40926,-0.41048 v -2.15347 c 0,-0.24795 -0.0951,-0.2913 -0.28528,-0.1312 z"
     style="fill:#1a1a1a;stroke-width:1.20373"
     id="path8" />
  <path
     fill="#65605f"
     d="m 415.9923,282.82268 c -0.005,-0.10111 -0.11554,-0.1613 -0.20099,-0.10713 -0.005,0.002 -0.008,0.005 -0.0132,0.01 -3.69061,3.09719 -7.95662,4.11192 -12.7956,3.04302 -6.56995,-1.44808 -9.3674,-6.73244 -9.38424,-13.17118 -0.0215,-6.98883 -0.0252,-13.99211 -0.0109,-21.01103 0,-0.10233 0.0807,-0.1866 0.18053,-0.1866 h 8.8101 c 0.19018,0 0.28408,0.0951 0.28408,0.2841 0.0143,6.80465 0.0238,13.58645 0.0275,20.34899 0,7.48356 10.09085,8.55489 12.47905,2.26903 0.40082,-1.04485 0.60428,-2.88534 0.6115,-5.5203 0.0179,-5.64428 0.0205,-11.30058 0.006,-16.97134 0,-0.2263 0.18057,-0.41048 0.40325,-0.41048 h 8.61987 c 0.18299,0 0.27446,0.0915 0.27446,0.27446 v 33.52619 c 0,0.12519 -0.0987,0.22509 -0.21909,0.22509 h -8.72942 c -0.2299,0 -0.34307,-0.11315 -0.34307,-0.33944 z"
     style="fill:#1a1a1a;stroke-width:1.20373"
     id="path9" />
  <path
     fill="#fc4c69"
     d="m 79.671139,267.93378 h 17.118193 c 0.144451,0 0.27806,-0.077 0.350284,-0.20222 l 4.302124,-7.52089 c 0.0722,-0.12518 0.20463,-0.20102 0.34908,-0.20102 h 10.01861 c 0.14324,0.002 0.27325,0.0782 0.34427,0.20102 l 5.02917,8.60905 c 0.0734,0.12398 0.0758,0.27807 0.005,0.40446 l -5.0388,8.75591 c -0.0722,0.12519 -0.20584,0.20222 -0.35028,0.20222 h -10.00781 c -0.14445,0 -0.27686,-0.077 -0.34908,-0.20222 l -4.302123,-7.52089 c -0.07223,-0.12399 -0.205838,-0.20222 -0.350286,-0.20222 h -17.12902 c -0.144447,0 -0.278059,0.0782 -0.350283,0.20222 l -4.306938,7.52089 c -0.07222,0.12519 -0.20463,0.20222 -0.349078,0.20222 H 64.62336 c -0.144448,0 -0.276862,-0.077 -0.349085,-0.20222 l -4.974997,-8.75591 c -0.07222,-0.12518 -0.07222,-0.27927 0,-0.40446 l 5.007498,-8.60905 c 0.07222,-0.12518 0.205836,-0.20102 0.350285,-0.20102 h 9.996948 c 0.144448,0 0.276854,0.0758 0.349079,0.20102 l 4.317766,7.52089 c 0.07222,0.12519 0.205843,0.20222 0.350285,0.20222 z"
     style="stroke-width:1.20373"
     id="path10" />
</svg>
